<svg width="219" height="57" viewBox="0 0 219 57" fill="none" xmlns="http://www.w3.org/2000/svg">
<g filter="url(#filter0_d_2_4)">
<path d="M36.104 38.52C35.5493 37.624 35.08 36.8773 34.696 36.28C34.312 35.6827 33.7147 35.2347 32.904 34.936C32.0933 34.5947 30.7707 34.424 28.936 34.424C28.0827 34.424 26.8667 34.488 25.288 34.616C23.7093 34.744 22.0027 34.9147 20.168 35.128C18.3333 35.3413 16.584 35.5547 14.92 35.768C13.256 35.9813 11.912 36.1733 10.888 36.344C9.864 36.5147 9.39467 36.6427 9.48 36.728C9.56533 37.0267 9.20267 37.24 8.392 37.368C7.624 37.496 6.87733 37.56 6.152 37.56C5.59733 37.56 5.23467 37.5173 5.064 37.432C4.72267 37.304 4.552 36.8773 4.552 36.152C4.552 35.5547 4.63733 34.936 4.808 34.296C4.97867 33.6133 5.064 33.272 5.064 33.272C5.14933 32.5467 5.81067 31.5013 7.048 30.136C8.28533 28.728 9.88533 27.1493 11.848 25.4C13.8107 23.608 15.9227 21.7733 18.184 19.896C20.488 17.976 22.7493 16.12 24.968 14.328C27.1867 12.4933 29.1707 10.8293 30.92 9.336C32.712 7.84267 34.056 6.648 34.952 5.752C35.8907 4.856 36.168 4.38667 35.784 4.344C35.1013 4.25866 34.376 4.19466 33.608 4.152C32.84 4.06667 32.0507 4.024 31.24 4.024C28.2533 4.024 25.16 4.344 21.96 4.984C18.8027 5.624 16.008 6.49866 13.576 7.608C12.936 7.90666 12.4453 8.056 12.104 8.056C11.72 8.056 11.528 7.90666 11.528 7.608C11.528 7.224 11.7413 6.73333 12.168 6.136C12.5947 5.53866 13.128 4.96266 13.768 4.408C14.4507 3.85333 15.0907 3.46933 15.688 3.256C18.4613 2.31733 21.2133 1.67733 23.944 1.336C26.7173 0.951998 29.2773 0.759998 31.624 0.759998C34.7813 0.759998 37.4053 0.994665 39.496 1.464C41.6293 1.93333 42.8453 2.424 43.144 2.936C43.272 3.192 43.336 3.448 43.336 3.704C43.336 4.64267 42.7813 5.79467 41.672 7.16C40.5627 8.48267 39.0693 9.976 37.192 11.64C35.3147 13.2613 33.2027 14.968 30.856 16.76C28.5093 18.5093 26.0987 20.28 23.624 22.072C21.1493 23.8213 18.76 25.528 16.456 27.192C14.1947 28.8133 12.168 30.3067 10.376 31.672C8.584 32.9947 7.19733 34.1253 6.216 35.064C6.216 35.064 6.77067 34.9147 7.88 34.616C9.032 34.3173 10.5467 33.9547 12.424 33.528C14.344 33.0587 16.4133 32.6107 18.632 32.184C20.8933 31.7147 23.1333 31.3307 25.352 31.032C27.6133 30.7333 29.64 30.584 31.432 30.584C32.5413 30.584 33.5013 30.648 34.312 30.776C35.7627 31.032 36.744 31.5653 37.256 32.376C37.8107 33.1867 38.088 34.04 38.088 34.936C38.088 35.6613 37.96 36.344 37.704 36.984C37.448 37.6667 37.1493 38.1573 36.808 38.456C36.5093 38.7547 36.2747 38.776 36.104 38.52ZM48.9705 11.512C48.5438 11.512 48.2238 11.4693 48.0105 11.384C47.7972 11.256 47.5838 11.1067 47.3705 10.936C47.1145 10.68 46.8158 10.3813 46.4745 10.04C46.1332 9.656 45.9625 9.336 45.9625 9.08C45.9625 8.86666 46.0905 8.73867 46.3465 8.696C48.5652 8.01333 50.2292 7.672 51.3385 7.672C52.0212 7.672 52.5332 7.77867 52.8745 7.992C53.2585 8.16267 53.5785 8.41867 53.8345 8.76C53.9198 8.80267 54.0692 9.016 54.2825 9.4C54.4958 9.74133 54.6025 9.95467 54.6025 10.04C54.6025 10.3387 54.2398 10.5307 53.5145 10.616C52.7892 10.7013 52.1918 10.7867 51.7225 10.872C51.2532 11.0427 50.7838 11.192 50.3145 11.32C49.8878 11.448 49.4398 11.512 48.9705 11.512ZM47.8185 34.36C47.5625 34.36 47.2638 34.1253 46.9225 33.656C46.5812 33.1867 46.2398 32.6747 45.8985 32.12C45.0452 30.6267 44.3412 29.0907 43.7865 27.512C43.2318 25.9333 42.9545 24.4187 42.9545 22.968C42.9545 21.6453 43.2105 20.408 43.7225 19.256C44.2345 18.104 45.0452 17.1227 46.1545 16.312C46.7945 15.8 47.7118 15.544 48.9065 15.544C49.6318 15.544 50.2718 15.6933 50.8265 15.992C51.3812 16.248 51.6585 16.7387 51.6585 17.464C51.6585 18.1467 51.3598 19.0427 50.7625 20.152C50.2078 21.2613 49.6958 22.456 49.2265 23.736C48.9705 24.5467 48.7572 25.4853 48.5865 26.552C48.4585 27.6187 48.4158 28.8347 48.4585 30.2C48.4585 30.4987 48.4585 30.776 48.4585 31.032C48.5012 31.2453 48.5225 31.4587 48.5225 31.672C48.5225 32.6533 48.4585 33.3573 48.3305 33.784C48.2025 34.168 48.0318 34.36 47.8185 34.36ZM61.9625 46.392C61.6638 46.392 61.5145 46.2427 61.5145 45.944C61.5145 45.688 61.6212 45.304 61.8345 44.792C62.0478 44.3227 62.3038 43.768 62.6025 43.128C63.5838 41.208 64.5438 39.416 65.4825 37.752C66.4638 36.088 67.4452 34.488 68.4265 32.952C66.4638 31.8 64.7145 30.4773 63.1785 28.984C61.6852 27.4907 60.4052 26.04 59.3385 24.632C58.3145 23.224 57.5252 22.0293 56.9705 21.048C56.4585 20.0667 56.2025 19.5333 56.2025 19.448C56.2025 19.2347 56.3945 19.064 56.7785 18.936C57.2052 18.808 57.6745 18.7227 58.1865 18.68C58.7412 18.6373 59.2105 18.616 59.5945 18.616C60.0212 18.616 60.2345 18.616 60.2345 18.616C60.9598 21.8587 62.1972 24.5893 63.9465 26.808C65.7385 28.984 67.5305 30.584 69.3225 31.608C71.1145 28.792 72.6078 25.9333 73.8025 23.032C75.0398 20.088 76.2558 16.76 77.4505 13.048C77.4505 12.92 77.6212 12.856 77.9625 12.856C78.3892 12.856 78.9865 12.9627 79.7545 13.176C80.5652 13.3893 81.3545 13.688 82.1225 14.072C82.9332 14.4133 83.5732 14.8187 84.0425 15.288C84.5545 15.7147 84.7465 16.1413 84.6185 16.568C83.8505 18.7867 82.7625 21.176 81.3545 23.736C79.9465 26.2533 78.3678 28.7493 76.6185 31.224C74.9118 33.656 73.1838 35.9173 71.4345 38.008C69.6852 40.0987 68.0852 41.848 66.6345 43.256C65.2265 44.664 64.1172 45.56 63.3065 45.944C62.7092 46.2427 62.2612 46.392 61.9625 46.392ZM96.5955 11.512C96.1688 11.512 95.8488 11.4693 95.6355 11.384C95.4222 11.256 95.2088 11.1067 94.9955 10.936C94.7395 10.68 94.4408 10.3813 94.0995 10.04C93.7582 9.656 93.5875 9.336 93.5875 9.08C93.5875 8.86666 93.7155 8.73867 93.9715 8.696C96.1902 8.01333 97.8542 7.672 98.9635 7.672C99.6462 7.672 100.158 7.77867 100.5 7.992C100.884 8.16267 101.204 8.41867 101.46 8.76C101.545 8.80267 101.694 9.016 101.908 9.4C102.121 9.74133 102.228 9.95467 102.228 10.04C102.228 10.3387 101.865 10.5307 101.14 10.616C100.414 10.7013 99.8168 10.7867 99.3475 10.872C98.8782 11.0427 98.4088 11.192 97.9395 11.32C97.5128 11.448 97.0648 11.512 96.5955 11.512ZM95.4435 34.36C95.1875 34.36 94.8888 34.1253 94.5475 33.656C94.2062 33.1867 93.8648 32.6747 93.5235 32.12C92.6702 30.6267 91.9662 29.0907 91.4115 27.512C90.8568 25.9333 90.5795 24.4187 90.5795 22.968C90.5795 21.6453 90.8355 20.408 91.3475 19.256C91.8595 18.104 92.6702 17.1227 93.7795 16.312C94.4195 15.8 95.3368 15.544 96.5315 15.544C97.2568 15.544 97.8968 15.6933 98.4515 15.992C99.0062 16.248 99.2835 16.7387 99.2835 17.464C99.2835 18.1467 98.9848 19.0427 98.3875 20.152C97.8328 21.2613 97.3208 22.456 96.8515 23.736C96.5955 24.5467 96.3822 25.4853 96.2115 26.552C96.0835 27.6187 96.0408 28.8347 96.0835 30.2C96.0835 30.4987 96.0835 30.776 96.0835 31.032C96.1262 31.2453 96.1475 31.4587 96.1475 31.672C96.1475 32.6533 96.0835 33.3573 95.9555 33.784C95.8275 34.168 95.6568 34.36 95.4435 34.36ZM108.244 35.384C108.073 35.384 107.774 35.256 107.348 35C106.921 34.7867 106.516 34.488 106.132 34.104C105.79 33.6773 105.62 33.2507 105.62 32.824C105.62 31.6293 105.812 30.1573 106.196 28.408C106.622 26.616 107.177 24.7387 107.86 22.776C108.542 20.7707 109.268 18.9147 110.036 17.208C110.377 16.4827 110.846 15.992 111.444 15.736C112.041 15.4373 112.681 15.288 113.364 15.288C114.345 15.288 115.262 15.544 116.116 16.056C116.969 16.568 117.396 17.2293 117.396 18.04C117.396 18.4667 117.246 18.8933 116.948 19.32C116.734 19.6187 116.478 20.0453 116.18 20.6C115.881 21.112 115.625 21.5813 115.412 22.008C115.156 22.52 115.092 22.776 115.22 22.776C115.262 22.776 115.476 22.584 115.86 22.2C116.713 21.3893 117.865 20.5573 119.316 19.704C120.809 18.808 122.345 18.0613 123.924 17.464C125.502 16.824 126.868 16.504 128.02 16.504C129.726 16.504 131.113 16.9947 132.18 17.976C133.289 18.9147 134.1 20.1307 134.612 21.624C135.124 23.1173 135.38 24.6533 135.38 26.232C135.38 29.048 134.74 31.288 133.46 32.952C133.289 33.208 132.948 33.5707 132.436 34.04C131.924 34.5093 131.54 34.744 131.284 34.744C131.156 34.744 131.092 34.6587 131.092 34.488C131.092 34.4027 131.092 34.3173 131.092 34.232C131.134 34.1467 131.177 34.04 131.22 33.912C131.561 32.9733 131.817 31.9493 131.988 30.84C132.201 29.7307 132.308 28.6213 132.308 27.512C132.308 26.104 132.094 24.7813 131.668 23.544C131.284 22.3067 130.601 21.304 129.62 20.536C128.681 19.768 127.38 19.384 125.716 19.384C123.113 19.384 120.852 20.1947 118.932 21.816C117.054 23.4373 115.177 25.6987 113.3 28.6C111.849 30.8187 110.761 32.504 110.036 33.656C109.31 34.808 108.713 35.384 108.244 35.384ZM152.373 48.76C150.624 48.76 149.066 48.44 147.701 47.8C146.336 47.2027 145.269 46.4347 144.501 45.496C143.733 44.5573 143.349 43.6187 143.349 42.68C143.349 41.4853 144.01 40.504 145.333 39.736C145.546 39.608 145.738 39.8213 145.909 40.376C146.122 40.9307 146.421 41.592 146.805 42.36C147.232 43.1707 147.893 43.8747 148.789 44.472C149.685 45.112 150.944 45.432 152.565 45.432C154.954 45.432 156.938 44.8773 158.517 43.768C160.096 42.7013 161.354 41.272 162.293 39.48C163.274 37.7307 163.957 35.8107 164.341 33.72C164.725 31.6293 164.874 29.6027 164.789 27.64C164.789 27.64 164.725 27.3413 164.597 26.744C164.469 26.1467 164.362 25.3787 164.277 24.44C164.192 24.6107 164.042 24.8027 163.829 25.016C163.658 25.1867 163.466 25.336 163.253 25.464C162.058 26.36 160.608 27.2347 158.901 28.088C157.194 28.9413 155.424 29.7733 153.589 30.584C151.754 31.3947 150.005 32.1413 148.341 32.824C146.72 33.5067 145.333 34.104 144.181 34.616C143.584 34.9147 142.752 35.064 141.685 35.064C140.618 35.064 139.637 34.8507 138.741 34.424C137.802 33.9973 137.333 33.3787 137.333 32.568C137.333 31.4587 137.76 30.0293 138.613 28.28C139.424 26.488 140.554 24.632 142.005 22.712C143.456 20.7493 145.098 18.9787 146.933 17.4C149.066 15.5653 151.05 14.264 152.885 13.496C154.72 12.6853 156.704 12.28 158.837 12.28C159.178 12.28 159.541 12.3013 159.925 12.344C160.309 12.344 160.693 12.3653 161.077 12.408C161.845 12.408 162.506 12.5573 163.061 12.856C163.616 13.112 164.106 13.3467 164.533 13.56C164.49 12.8347 164.576 12.28 164.789 11.896C165.045 11.512 165.237 11.32 165.365 11.32C166.346 11.32 167.264 11.512 168.117 11.896C169.013 12.28 169.738 12.7493 170.293 13.304C170.89 13.8587 171.21 14.4133 171.253 14.968C171.296 15.3947 171.317 15.8213 171.317 16.248C171.36 16.632 171.381 17.0373 171.381 17.464C171.381 20.152 171.082 22.8613 170.485 25.592C169.888 28.28 169.077 30.8827 168.053 33.4C167.072 35.8747 165.962 38.136 164.725 40.184C162.976 43.0427 161.184 45.176 159.349 46.584C157.514 48.0347 155.189 48.76 152.373 48.76ZM146.165 31.736C147.274 31.736 148.533 31.416 149.941 30.776C151.349 30.136 152.672 29.496 153.909 28.856C160.608 25.272 164.042 23.0107 164.213 22.072C164.426 21.3467 164.533 20.7707 164.533 20.344C164.533 19.8747 164.426 19.2773 164.213 18.552C163.957 17.1867 162.997 16.504 161.333 16.504C160.522 16.504 159.498 16.7173 158.261 17.144C157.024 17.528 155.594 18.1893 153.973 19.128C152.01 20.2373 150.24 21.4533 148.661 22.776C147.125 24.056 145.909 25.3147 145.013 26.552C144.16 27.7467 143.733 28.7707 143.733 29.624C143.733 30.3067 143.968 30.84 144.437 31.224C144.906 31.5653 145.482 31.736 146.165 31.736ZM178.388 14.712C178.089 14.7973 178.153 14.6053 178.58 14.136C179.049 13.6667 179.646 13.0267 180.372 12.216C181.097 11.3627 181.758 10.4667 182.356 9.528C182.996 8.58933 183.316 7.672 183.316 6.776C183.316 5.92267 182.953 5.21866 182.228 4.664C181.716 4.28 181.46 3.91733 181.46 3.576C181.46 3.27733 181.673 3.064 182.1 2.936C182.526 2.76533 183.038 2.68 183.635 2.68C184.66 2.68 185.705 2.91467 186.772 3.384C187.838 3.81067 188.372 4.472 188.372 5.368C188.372 6.05066 188.009 7.032 187.284 8.312C186.558 9.592 185.449 10.8507 183.956 12.088C182.505 13.2827 180.649 14.1573 178.388 14.712ZM195.81 35.768C194.615 35.768 193.378 35.6827 192.098 35.512C190.86 35.384 189.815 35.128 188.962 34.744C188.151 34.3173 187.745 33.7413 187.745 33.016C187.745 32.632 187.895 32.3333 188.194 32.12C188.535 31.864 188.919 31.736 189.346 31.736C189.559 31.736 189.922 31.7787 190.434 31.864C190.946 31.9493 191.308 32.0133 191.522 32.056C192.802 32.184 194.402 32.248 196.322 32.248C197.986 32.248 199.628 32.184 201.25 32.056C202.871 31.928 204.215 31.736 205.282 31.48C206.391 31.224 206.946 30.904 206.946 30.52C206.946 30.1787 206.604 29.8373 205.922 29.496C205.239 29.112 204.599 28.792 204.002 28.536C202.85 27.9813 201.57 27.4267 200.162 26.872C198.754 26.3173 197.452 25.8267 196.258 25.4C195.106 24.9307 194.338 24.6107 193.954 24.44C192.631 23.8427 191.479 23.2027 190.498 22.52C189.516 21.8373 189.026 21.0907 189.026 20.28C189.026 19.64 189.474 18.808 190.37 17.784C191.436 16.632 192.759 15.6933 194.338 14.968C195.959 14.2 197.687 13.624 199.522 13.24C201.399 12.856 203.234 12.664 205.026 12.664C206.391 12.664 207.671 12.7707 208.866 12.984C210.103 13.1973 211.17 13.5173 212.066 13.944C212.663 14.2427 213.196 14.6267 213.666 15.096C214.178 15.5227 214.434 15.9067 214.434 16.248C214.434 16.504 214.306 16.696 214.05 16.824C213.836 16.952 213.559 17.016 213.218 17.016C213.047 17.016 212.876 17.016 212.706 17.016C212.578 16.9733 212.45 16.9307 212.322 16.888C211.426 16.5467 210.508 16.2693 209.57 16.056C208.631 15.8427 207.671 15.736 206.69 15.736C205.367 15.736 203.938 16.0347 202.402 16.632C200.908 17.1867 199.628 17.912 198.562 18.808C197.538 19.704 197.026 20.6213 197.026 21.56C197.026 22.0293 197.218 22.5413 197.602 23.096C197.986 23.608 198.647 24.1627 199.586 24.76C201.164 25.6987 202.764 26.488 204.385 27.128C206.007 27.7253 207.351 28.3013 208.418 28.856C210.039 29.752 210.85 30.7547 210.85 31.864C210.85 32.6747 210.338 33.336 209.314 33.848C208.29 34.36 206.988 34.744 205.41 35C203.831 35.2987 202.167 35.4907 200.418 35.576C198.711 35.704 197.175 35.768 195.81 35.768Z" fill="#DD8877"/>
</g>
<defs>
<filter id="filter0_d_2_4" x="0.552002" y="0.759995" width="217.882" height="56" filterUnits="userSpaceOnUse" color-interpolation-filters="sRGB">
<feFlood flood-opacity="0" result="BackgroundImageFix"/>
<feColorMatrix in="SourceAlpha" type="matrix" values="0 0 0 0 0 0 0 0 0 0 0 0 0 0 0 0 0 0 127 0" result="hardAlpha"/>
<feOffset dy="4"/>
<feGaussianBlur stdDeviation="2"/>
<feComposite in2="hardAlpha" operator="out"/>
<feColorMatrix type="matrix" values="0 0 0 0 0.404167 0 0 0 0 0.16975 0 0 0 0 0 0 0 0 0.25 0"/>
<feBlend mode="normal" in2="BackgroundImageFix" result="effect1_dropShadow_2_4"/>
<feBlend mode="normal" in="SourceGraphic" in2="effect1_dropShadow_2_4" result="shape"/>
</filter>
</defs>
</svg>
